HIERARCHY
ROOT Hips
{
  OFFSET 62.09 96.9958 -4.43659
  CHANNELS 6 Xposition Yposition Zposition Zrotation Xrotation Yrotation
  JOINT spine
  {
    OFFSET 0 7.96568 0.458067
    CHANNELS 3 Zrotation Xrotation Yrotation
    JOINT spine1
    {
      OFFSET 0 10.2431 0
      CHANNELS 3 Zrotation Xrotation Yrotation
      JOINT spine2
      {
        OFFSET 0 9.81475 0
        CHANNELS 3 Zrotation Xrotation Yrotation
        JOINT Neck
        {
          OFFSET 0 25.1986 1.20138
          CHANNELS 3 Zrotation Xrotation Yrotation
          JOINT Head
          {
            OFFSET 0 7.61315 0
            CHANNELS 3 Zrotation Xrotation Yrotation
            End Site
            {
              OFFSET 0 18.4281 -6.07733
            }
          }
        }
        JOINT RightShoulder
        {
          OFFSET -4.1327 10.5992 -0.575451
          CHANNELS 3 Zrotation Xrotation Yrotation
          JOINT RightArm
          {
            OFFSET 0 13.9018 0
            CHANNELS 3 Zrotation Xrotation Yrotation
            JOINT RightArmRoll
            {
              OFFSET 0 7.01789 0
              CHANNELS 3 Zrotation Xrotation Yrotation
              JOINT RightForeArm
              {
                OFFSET 0 20.4406 0
                CHANNELS 3 Zrotation Xrotation Yrotation
                JOINT RightForeArmRoll
                {
                  OFFSET 0 7.87516 0
                  CHANNELS 3 Zrotation Xrotation Yrotation
                  JOINT RightHand
                  {
                    OFFSET 0 15.8037 0
                    CHANNELS 3 Zrotation Xrotation Yrotation
                    End Site
                    {
                      OFFSET 0 0 0
                    }
                  }
                }
              }
            }
          }
        }
        JOINT LeftShoulder
        {
          OFFSET 4.1327 10.5992 -0.575451
          CHANNELS 3 Zrotation Xrotation Yrotation
          JOINT LeftArm
          {
            OFFSET 0 13.9018 0
            CHANNELS 3 Zrotation Xrotation Yrotation
            JOINT LeftArmRoll
            {
              OFFSET 0 7.01789 0
              CHANNELS 3 Zrotation Xrotation Yrotation
              JOINT LeftForeArm
              {
                OFFSET 0 20.4406 0
                CHANNELS 3 Zrotation Xrotation Yrotation
                JOINT LeftForeArmRoll
                {
                  OFFSET 0 7.87516 0
                  CHANNELS 3 Zrotation Xrotation Yrotation
                  JOINT LeftHand
                  {
                    OFFSET 0 15.8037 0
                    CHANNELS 3 Zrotation Xrotation Yrotation
                    End Site
                    {
                      OFFSET 0 0 0
                    }
                  }
                }
              }
            }
          }
        }
      }
    }
  }
  JOINT RightUpLeg
  {
    OFFSET -7.06048 -1.2947 -1.0861
    CHANNELS 3 Zrotation Xrotation Yrotation
    JOINT RightUpLegRoll
    {
      OFFSET 0 18.5308 0
      CHANNELS 3 Zrotation Xrotation Yrotation
      JOINT RightLeg
      {
        OFFSET 0 -22.9476 0
        CHANNELS 3 Zrotation Xrotation Yrotation
        JOINT RightLegRoll
        {
          OFFSET 0 23.0226 0
          CHANNELS 3 Zrotation Xrotation Yrotation
          JOINT RightFoot
          {
            OFFSET 0 19.1625 0
            CHANNELS 3 Zrotation Xrotation Yrotation
            JOINT RightToeBase
            {
              OFFSET 0 16.0188 0
              CHANNELS 3 Zrotation Xrotation Yrotation
              End Site
              {
                OFFSET 0.00678979 7.75781 -0.894207
              }
            }
          }
        }
      }
    }
  }
  JOINT LeftUpLeg
  {
    OFFSET 7.06048 -1.2947 -1.0861
    CHANNELS 3 Zrotation Xrotation Yrotation
    JOINT LeftUpLegRoll
    {
      OFFSET 0 18.5309 0
      CHANNELS 3 Zrotation Xrotation Yrotation
      JOINT LeftLeg
      {
        OFFSET 0 22.9475 0
        CHANNELS 3 Zrotation Xrotation Yrotation
        JOINT LeftLegRoll
        {
          OFFSET 0 23.2355 0
          CHANNELS 3 Zrotation Xrotation Yrotation
          JOINT LeftFoot
          {
            OFFSET 0 18.9496 0
            CHANNELS 3 Zrotation Xrotation Yrotation
            JOINT LeftToeBase
            {
              OFFSET 0 16.0188 0
              CHANNELS 3 Zrotation Xrotation Yrotation
              End Site
              {
                OFFSET -0.0304289 7.75782 -0.894206
              }
            }
          }
        }
      }
    }
  }
}
MOTION
Frames: 6
Frame Time: 0.00208333
58.5573 96.3838 -2.82749 0.301209 -3.76492 4.01202 0.272905 -0.567729 -0.364934 0.532986 2.88026 -0.745273 0.542571 4.52523 -0.754871 -8.55928 8.44549 -1.35619 7.47474 7.9644 -3.12982 77.1123 -5.01315 -4.18914 94.8798 26.2212 3.2402 6.97676e-006 -1.3071e-006 1.2699e-006 13.0025 8.30747 -1.58014 -2.97035e-005 -1.05136e-005 -3.00686 8.02889 -4.95143 0.697674 -63.224 0.750486 0.130728 -111.308 21.9292 3.97567 -4.60759e-006 1.57919e-006 -9.10846e-008 -10.5516 9.91611 1.65313 3.65399e-007 -2.02184e-007 3.0063 -8.02894 -4.95141 -0.697663 179.449 -0.431118 1.33645 -180 7.01536e-015 178.875 178.951 7.56947 179.522 -2.69008e-006 -6.75328e-007 0.00434925 -17.4422 66.3815 18.2681 8.12691 25.2332 -3.48365 -177.405 -0.181657 0.478488 4.5067e-006 -1.99009e-005 -1.15636 -0.884121 -11.5341 0.254875 4.35369e-006 -2.58604e-006 -0.216714 19.4343 68.9424 -20.3392 -8.13583 25.2317 3.48877 
58.5582 96.3783 -2.8362 0.298042 -3.75092 4.01556 0.27333 -0.565827 -0.365237 0.534866 2.883 -0.746539 0.544469 4.52796 -0.75617 -8.57564 8.42218 -1.36142 7.50212 7.95976 -3.13599 77.1127 -5.01554 -4.19017 94.845 26.149 3.23976 6.97676e-006 -1.3071e-006 1.2699e-006 13.0254 8.37429 -1.59 -2.97035e-005 -1.05136e-005 -3.00686 8.02889 -4.95143 0.697674 -63.2374 0.744049 0.136044 -111.287 21.8534 3.94397 -4.60759e-006 1.57919e-006 -9.10845e-008 -10.5572 9.94254 1.65659 3.65399e-007 -2.02184e-007 3.0063 -8.02894 -4.95141 -0.697663 179.47 -0.422531 1.32263 -180 7.01536e-015 178.876 178.949 7.54746 179.522 -2.69008e-006 -6.75328e-007 0.00263727 -17.4238 66.3559 18.2492 8.12691 25.2332 -3.48365 -177.408 -0.125716 0.487041 4.5067e-006 -1.99009e-005 -1.15635 -0.873074 -11.6149 0.25811 4.35369e-006 -2.58604e-006 -0.217214 19.4424 68.9513 -20.3479 -8.13558 25.2281 3.49365 
58.5573 96.3672 -2.82681 0.294884 -3.73716 4.01907 0.273727 -0.563914 -0.365546 0.536748 2.88572 -0.747796 0.546368 4.53068 -0.75746 -8.59206 8.39928 -1.36655 7.52966 7.95502 -3.14213 77.1131 -5.01796 -4.19121 94.8099 26.0764 3.24009 6.97676e-006 -1.3071e-006 1.2699e-006 13.0481 8.44021 -1.59971 -2.97035e-005 -1.05136e-005 -3.00686 8.02889 -4.95143 0.697674 -63.2502 0.737388 0.141411 -111.266 21.7771 3.91123 -4.60759e-006 1.57919e-006 -9.10845e-008 -10.5619 9.96845 1.65993 3.65399e-007 -2.02184e-007 3.0063 -8.02894 -4.95141 -0.697663 179.49 -0.417149 1.31011 -180 7.01536e-015 178.877 178.944 7.51956 179.523 -2.69008e-006 -6.75328e-007 0.000835999 -17.4044 66.3289 18.2292 8.12691 25.2332 -3.48365 -177.41 -0.0707472 0.495064 4.5067e-006 -1.99009e-005 -1.15633 -0.862463 -11.6947 0.261242 4.35369e-006 -2.58604e-006 -0.217642 19.4509 68.9606 -20.357 -8.13519 25.2223 3.50131 
58.5534 96.3647 -2.81875 0.291733 -3.72357 4.02255 0.274103 -0.561993 -0.365859 0.53863 2.88843 -0.749047 0.548269 4.5334 -0.758745 -8.60853 8.37668 -1.37163 7.55731 7.95021 -3.14823 77.1134 -5.02039 -4.19225 94.7746 26.0036 3.24096 6.97676e-006 -1.3071e-006 1.2699e-006 13.0706 8.50549 -1.60931 -2.97035e-005 -1.05136e-005 -3.00686 8.02889 -4.95143 0.697674 -63.2626 0.73057 0.146813 -111.245 21.7005 3.87777 -4.60759e-006 1.57919e-006 -9.10845e-008 -10.5659 9.994 1.66321 3.65399e-007 -2.02184e-007 3.0063 -8.02894 -4.95141 -0.697663 179.51 -0.414012 1.29849 -180 7.01536e-015 178.878 178.939 7.48752 179.524 -2.69008e-006 -6.75328e-007 -0.00102779 -17.3844 66.3009 18.2086 8.12691 25.2332 -3.48365 -177.413 -0.0164578 0.502715 4.5067e-006 -1.99009e-005 -1.1563 -0.852156 -11.7738 0.264303 4.35369e-006 -2.58604e-006 -0.21802 19.4597 68.9702 -20.3664 -8.13469 25.2152 3.5109 
58.5472 96.3431 -2.81978 0.288584 -3.71007 4.02602 0.274468 -0.560066 -0.366175 0.540513 2.89114 -0.750295 0.550169 4.5361 -0.760025 -8.62503 8.35425 -1.37668 7.58502 7.94536 -3.15431 77.1137 -5.02282 -4.19329 94.7391 25.9306 3.24214 6.97676e-006 -1.3071e-006 1.2699e-006 13.0931 8.5704 -1.61885 -2.97035e-005 -1.05136e-005 -3.00686 8.02889 -4.95143 0.697674 -63.2747 0.723663 0.152237 -111.224 21.6237 3.84392 -4.60759e-006 1.57919e-006 -9.10845e-008 -10.5696 10.0194 1.66645 3.65399e-007 -2.02184e-007 3.0063 -8.02894 -4.95141 -0.697663 179.53 -0.412156 1.28739 -180 7.01537e-015 178.878 178.933 7.45313 179.525 -2.69008e-006 -6.75328e-007 -0.00292729 -17.3641 66.2723 18.1876 8.12691 25.2332 -3.48365 -177.415 0.037443 0.510153 4.5067e-006 -1.99009e-005 -1.15627 -0.842017 -11.8525 0.267324 4.35369e-006 -2.58604e-006 -0.218368 19.4687 68.9799 -20.376 -8.13413 25.2071 3.5216 
58.5369 96.339 -2.80555 0.285435 -3.6966 4.02949 0.27483 -0.558138 -0.366491 0.542396 2.89384 -0.751542 0.55207 4.53881 -0.761305 -8.64154 8.33187 -1.38172 7.61274 7.9405 -3.16039 77.114 -5.02526 -4.19434 94.7036 25.8577 3.24339 6.97676e-006 -1.3071e-006 1.2699e-006 13.1155 8.63523 -1.62839 -2.97035e-005 -1.05136e-005 -3.00686 8.02889 -4.95143 0.697674 -63.2868 0.716734 0.157665 -111.204 21.5469 3.81001 -4.60759e-006 1.57919e-006 -9.10845e-008 -10.5731 10.0447 1.66967 3.65399e-007 -2.02184e-007 3.0063 -8.02894 -4.95141 -0.697663 179.55 -0.410621 1.27642 -180 7.01537e-015 178.879 178.927 7.41816 179.526 -2.69008e-006 -6.75328e-007 -0.00483573 -17.3437 66.2436 18.1666 8.12691 25.2332 -3.48365 -177.417 0.0912467 0.517539 4.5067e-006 -1.99009e-005 -1.15624 -0.831915 -11.9312 0.270337 4.35369e-006 -2.58604e-006 -0.218709 19.4777 68.9897 -20.3857 -8.13356 25.1989 3.53258 
